<svg xmlns="http://www.w3.org/2000/svg" viewBox="0 0 600 400" width="100%" height="auto" preserveAspectRatio="xMidYMid meet" style="max-width:100%;height:auto;">
  <defs>
    <linearGradient id="bc-bg" x1="0%" y1="0%" x2="0%" y2="100%">
      <stop offset="0%" style="stop-color:#0f1e36"/>
      <stop offset="100%" style="stop-color:#0a1628"/>
    </linearGradient>
    <linearGradient id="bc-pastry" x1="0%" y1="0%" x2="0%" y2="100%">
      <stop offset="0%" style="stop-color:#d0eaff"/>
      <stop offset="40%" style="stop-color:#4da8e8"/>
      <stop offset="100%" style="stop-color:#3d90c8"/>
    </linearGradient>
    <linearGradient id="bc-syrup" x1="0%" y1="0%" x2="0%" y2="100%">
      <stop offset="0%" style="stop-color:#4da8e8;stop-opacity:0.8"/>
      <stop offset="100%" style="stop-color:#8b4513;stop-opacity:0.6"/>
    </linearGradient>
    <linearGradient id="bc-pistachio" x1="0%" y1="0%" x2="100%" y2="100%">
      <stop offset="0%" style="stop-color:#6b8e23"/>
      <stop offset="100%" style="stop-color:#4a6b12"/>
    </linearGradient>
  </defs>
  <rect width="600" height="400" fill="url(#bc-bg)"/>
  <!-- Tray base -->
  <rect x="20" y="40" width="560" height="320" rx="10" fill="#3d2d1e" stroke="#4da8e8" stroke-width="2"/>

  <!-- Row 1 of diamond pieces -->
  <!-- Diamond 1 -->
  <polygon points="100,100 160,70 220,100 160,130" fill="url(#bc-pastry)" stroke="#3d90c8" stroke-width="1"/>
  <polygon points="110,100 160,75 210,100 160,125" fill="none" stroke="#d0eaff" stroke-width="0.5" opacity="0.4"/>
  <line x1="130" y1="87" x2="190" y2="87" stroke="#4da8e8" stroke-width="0.3" opacity="0.5"/>
  <line x1="125" y1="95" x2="195" y2="95" stroke="#4da8e8" stroke-width="0.3" opacity="0.5"/>
  <line x1="125" y1="105" x2="195" y2="105" stroke="#4da8e8" stroke-width="0.3" opacity="0.5"/>
  <line x1="130" y1="113" x2="190" y2="113" stroke="#4da8e8" stroke-width="0.3" opacity="0.5"/>
  <!-- Pistachios on top -->
  <ellipse cx="150" cy="95" rx="5" ry="3" fill="url(#bc-pistachio)"/>
  <ellipse cx="165" cy="98" rx="4" ry="3" fill="#5a7a1a"/>
  <ellipse cx="158" cy="103" rx="4" ry="2.5" fill="url(#bc-pistachio)"/>
  <ellipse cx="145" cy="105" rx="3" ry="2" fill="#6b8e23"/>
  <ellipse cx="172" cy="93" rx="3" ry="2" fill="#5a7a1a"/>
  
  <!-- Diamond 2 -->
  <polygon points="220,100 280,70 340,100 280,130" fill="url(#bc-pastry)" stroke="#3d90c8" stroke-width="1"/>
  <polygon points="230,100 280,75 330,100 280,125" fill="none" stroke="#d0eaff" stroke-width="0.5" opacity="0.4"/>
  <line x1="250" y1="87" x2="310" y2="87" stroke="#4da8e8" stroke-width="0.3" opacity="0.5"/>
  <line x1="245" y1="95" x2="315" y2="95" stroke="#4da8e8" stroke-width="0.3" opacity="0.5"/>
  <line x1="245" y1="105" x2="315" y2="105" stroke="#4da8e8" stroke-width="0.3" opacity="0.5"/>
  <line x1="250" y1="113" x2="310" y2="113" stroke="#4da8e8" stroke-width="0.3" opacity="0.5"/>
  <ellipse cx="270" cy="95" rx="5" ry="3" fill="url(#bc-pistachio)"/>
  <ellipse cx="285" cy="100" rx="4" ry="3" fill="#5a7a1a"/>
  <ellipse cx="278" cy="105" rx="4" ry="2.5" fill="url(#bc-pistachio)"/>
  <ellipse cx="290" cy="94" rx="3" ry="2" fill="#6b8e23"/>
  
  <!-- Diamond 3 -->
  <polygon points="340,100 400,70 460,100 400,130" fill="url(#bc-pastry)" stroke="#3d90c8" stroke-width="1"/>
  <polygon points="350,100 400,75 450,100 400,125" fill="none" stroke="#d0eaff" stroke-width="0.5" opacity="0.4"/>
  <line x1="370" y1="87" x2="430" y2="87" stroke="#4da8e8" stroke-width="0.3" opacity="0.5"/>
  <line x1="365" y1="95" x2="435" y2="95" stroke="#4da8e8" stroke-width="0.3" opacity="0.5"/>
  <line x1="365" y1="105" x2="435" y2="105" stroke="#4da8e8" stroke-width="0.3" opacity="0.5"/>
  <line x1="370" y1="113" x2="430" y2="113" stroke="#4da8e8" stroke-width="0.3" opacity="0.5"/>
  <ellipse cx="390" cy="96" rx="5" ry="3" fill="url(#bc-pistachio)"/>
  <ellipse cx="405" cy="100" rx="4" ry="2.5" fill="#5a7a1a"/>
  <ellipse cx="398" cy="104" rx="4" ry="3" fill="url(#bc-pistachio)"/>
  <ellipse cx="410" cy="95" rx="3" ry="2" fill="#6b8e23"/>

  <!-- Diamond 4 -->
  <polygon points="460,100 520,70 580,100 520,130" fill="url(#bc-pastry)" stroke="#3d90c8" stroke-width="1"/>
  <line x1="490" y1="87" x2="550" y2="87" stroke="#4da8e8" stroke-width="0.3" opacity="0.5"/>
  <line x1="485" y1="95" x2="555" y2="95" stroke="#4da8e8" stroke-width="0.3" opacity="0.5"/>
  <line x1="485" y1="105" x2="555" y2="105" stroke="#4da8e8" stroke-width="0.3" opacity="0.5"/>
  <ellipse cx="510" cy="96" rx="4" ry="3" fill="url(#bc-pistachio)"/>
  <ellipse cx="525" cy="100" rx="5" ry="3" fill="#5a7a1a"/>
  <ellipse cx="518" cy="105" rx="3" ry="2" fill="url(#bc-pistachio)"/>
  
  <!-- Row 2 -->
  <polygon points="160,130 220,100 280,130 220,160" fill="url(#bc-pastry)" stroke="#3d90c8" stroke-width="1"/>
  <line x1="190" y1="117" x2="250" y2="117" stroke="#4da8e8" stroke-width="0.3" opacity="0.5"/>
  <line x1="185" y1="130" x2="255" y2="130" stroke="#4da8e8" stroke-width="0.3" opacity="0.5"/>
  <line x1="190" y1="143" x2="250" y2="143" stroke="#4da8e8" stroke-width="0.3" opacity="0.5"/>
  <ellipse cx="215" cy="128" rx="5" ry="3" fill="url(#bc-pistachio)"/>
  <ellipse cx="225" cy="133" rx="4" ry="2.5" fill="#5a7a1a"/>
  <ellipse cx="210" cy="135" rx="3" ry="2" fill="#6b8e23"/>
  
  <polygon points="280,130 340,100 400,130 340,160" fill="url(#bc-pastry)" stroke="#3d90c8" stroke-width="1"/>
  <line x1="310" y1="117" x2="370" y2="117" stroke="#4da8e8" stroke-width="0.3" opacity="0.5"/>
  <line x1="305" y1="130" x2="375" y2="130" stroke="#4da8e8" stroke-width="0.3" opacity="0.5"/>
  <line x1="310" y1="143" x2="370" y2="143" stroke="#4da8e8" stroke-width="0.3" opacity="0.5"/>
  <ellipse cx="330" cy="127" rx="5" ry="3" fill="url(#bc-pistachio)"/>
  <ellipse cx="345" cy="132" rx="4" ry="3" fill="#5a7a1a"/>
  <ellipse cx="338" cy="137" rx="4" ry="2.5" fill="url(#bc-pistachio)"/>
  
  <polygon points="400,130 460,100 520,130 460,160" fill="url(#bc-pastry)" stroke="#3d90c8" stroke-width="1"/>
  <line x1="430" y1="117" x2="490" y2="117" stroke="#4da8e8" stroke-width="0.3" opacity="0.5"/>
  <line x1="425" y1="130" x2="495" y2="130" stroke="#4da8e8" stroke-width="0.3" opacity="0.5"/>
  <line x1="430" y1="143" x2="490" y2="143" stroke="#4da8e8" stroke-width="0.3" opacity="0.5"/>
  <ellipse cx="450" cy="127" rx="5" ry="3" fill="url(#bc-pistachio)"/>
  <ellipse cx="465" cy="132" rx="4" ry="3" fill="#5a7a1a"/>
  <ellipse cx="455" cy="137" rx="3" ry="2" fill="#6b8e23"/>
  
  <!-- Row 3 -->
  <polygon points="100,160 160,130 220,160 160,190" fill="url(#bc-pastry)" stroke="#3d90c8" stroke-width="1"/>
  <line x1="130" y1="150" x2="190" y2="150" stroke="#4da8e8" stroke-width="0.3" opacity="0.5"/>
  <line x1="125" y1="160" x2="195" y2="160" stroke="#4da8e8" stroke-width="0.3" opacity="0.5"/>
  <line x1="130" y1="170" x2="190" y2="170" stroke="#4da8e8" stroke-width="0.3" opacity="0.5"/>
  <ellipse cx="155" cy="158" rx="5" ry="3" fill="url(#bc-pistachio)"/>
  <ellipse cx="165" cy="163" rx="4" ry="2.5" fill="#5a7a1a"/>
  
  <polygon points="220,160 280,130 340,160 280,190" fill="url(#bc-pastry)" stroke="#3d90c8" stroke-width="1"/>
  <line x1="250" y1="150" x2="310" y2="150" stroke="#4da8e8" stroke-width="0.3" opacity="0.5"/>
  <line x1="245" y1="160" x2="315" y2="160" stroke="#4da8e8" stroke-width="0.3" opacity="0.5"/>
  <line x1="250" y1="170" x2="310" y2="170" stroke="#4da8e8" stroke-width="0.3" opacity="0.5"/>
  <ellipse cx="275" cy="157" rx="5" ry="3" fill="url(#bc-pistachio)"/>
  <ellipse cx="285" cy="162" rx="4" ry="3" fill="#5a7a1a"/>
  <ellipse cx="270" cy="165" rx="3" ry="2" fill="#6b8e23"/>

  <polygon points="340,160 400,130 460,160 400,190" fill="url(#bc-pastry)" stroke="#3d90c8" stroke-width="1"/>
  <line x1="370" y1="150" x2="430" y2="150" stroke="#4da8e8" stroke-width="0.3" opacity="0.5"/>
  <line x1="365" y1="160" x2="435" y2="160" stroke="#4da8e8" stroke-width="0.3" opacity="0.5"/>
  <line x1="370" y1="170" x2="430" y2="170" stroke="#4da8e8" stroke-width="0.3" opacity="0.5"/>
  <ellipse cx="395" cy="157" rx="5" ry="3" fill="url(#bc-pistachio)"/>
  <ellipse cx="405" cy="162" rx="4" ry="2.5" fill="#5a7a1a"/>
  
  <polygon points="460,160 520,130 580,160 520,190" fill="url(#bc-pastry)" stroke="#3d90c8" stroke-width="1"/>
  <line x1="490" y1="150" x2="550" y2="150" stroke="#4da8e8" stroke-width="0.3" opacity="0.5"/>
  <line x1="485" y1="160" x2="555" y2="160" stroke="#4da8e8" stroke-width="0.3" opacity="0.5"/>
  <ellipse cx="515" cy="157" rx="5" ry="3" fill="url(#bc-pistachio)"/>
  <ellipse cx="525" cy="162" rx="4" ry="3" fill="#5a7a1a"/>
  
  <!-- Row 4 -->
  <polygon points="160,190 220,160 280,190 220,220" fill="url(#bc-pastry)" stroke="#3d90c8" stroke-width="1"/>
  <line x1="190" y1="180" x2="250" y2="180" stroke="#4da8e8" stroke-width="0.3" opacity="0.5"/>
  <line x1="185" y1="190" x2="255" y2="190" stroke="#4da8e8" stroke-width="0.3" opacity="0.5"/>
  <ellipse cx="215" cy="188" rx="5" ry="3" fill="url(#bc-pistachio)"/>
  <ellipse cx="225" cy="193" rx="4" ry="2.5" fill="#5a7a1a"/>
  <ellipse cx="210" cy="195" rx="3" ry="2" fill="#6b8e23"/>
  
  <polygon points="280,190 340,160 400,190 340,220" fill="url(#bc-pastry)" stroke="#3d90c8" stroke-width="1"/>
  <line x1="310" y1="180" x2="370" y2="180" stroke="#4da8e8" stroke-width="0.3" opacity="0.5"/>
  <line x1="305" y1="190" x2="375" y2="190" stroke="#4da8e8" stroke-width="0.3" opacity="0.5"/>
  <ellipse cx="335" cy="187" rx="5" ry="3" fill="url(#bc-pistachio)"/>
  <ellipse cx="345" cy="192" rx="4" ry="3" fill="#5a7a1a"/>
  
  <polygon points="400,190 460,160 520,190 460,220" fill="url(#bc-pastry)" stroke="#3d90c8" stroke-width="1"/>
  <line x1="430" y1="180" x2="490" y2="180" stroke="#4da8e8" stroke-width="0.3" opacity="0.5"/>
  <line x1="425" y1="190" x2="495" y2="190" stroke="#4da8e8" stroke-width="0.3" opacity="0.5"/>
  <ellipse cx="455" cy="187" rx="5" ry="3" fill="url(#bc-pistachio)"/>
  <ellipse cx="465" cy="192" rx="4" ry="2.5" fill="#5a7a1a"/>
  
  <!-- Row 5 -->
  <polygon points="100,220 160,190 220,220 160,250" fill="url(#bc-pastry)" stroke="#3d90c8" stroke-width="1"/>
  <line x1="130" y1="212" x2="190" y2="212" stroke="#4da8e8" stroke-width="0.3" opacity="0.5"/>
  <line x1="125" y1="220" x2="195" y2="220" stroke="#4da8e8" stroke-width="0.3" opacity="0.5"/>
  <ellipse cx="155" cy="218" rx="4" ry="3" fill="url(#bc-pistachio)"/>
  <ellipse cx="165" cy="223" rx="3" ry="2" fill="#5a7a1a"/>
  
  <polygon points="220,220 280,190 340,220 280,250" fill="url(#bc-pastry)" stroke="#3d90c8" stroke-width="1"/>
  <line x1="250" y1="212" x2="310" y2="212" stroke="#4da8e8" stroke-width="0.3" opacity="0.5"/>
  <line x1="245" y1="220" x2="315" y2="220" stroke="#4da8e8" stroke-width="0.3" opacity="0.5"/>
  <ellipse cx="275" cy="218" rx="5" ry="3" fill="url(#bc-pistachio)"/>
  <ellipse cx="285" cy="222" rx="4" ry="2.5" fill="#5a7a1a"/>
  
  <polygon points="340,220 400,190 460,220 400,250" fill="url(#bc-pastry)" stroke="#3d90c8" stroke-width="1"/>
  <line x1="370" y1="212" x2="430" y2="212" stroke="#4da8e8" stroke-width="0.3" opacity="0.5"/>
  <line x1="365" y1="220" x2="435" y2="220" stroke="#4da8e8" stroke-width="0.3" opacity="0.5"/>
  <ellipse cx="395" cy="218" rx="5" ry="3" fill="url(#bc-pistachio)"/>
  <ellipse cx="405" cy="222" rx="4" ry="3" fill="#5a7a1a"/>
  
  <polygon points="460,220 520,190 580,220 520,250" fill="url(#bc-pastry)" stroke="#3d90c8" stroke-width="1"/>
  <line x1="490" y1="212" x2="550" y2="212" stroke="#4da8e8" stroke-width="0.3" opacity="0.5"/>
  <ellipse cx="515" cy="218" rx="4" ry="3" fill="url(#bc-pistachio)"/>
  <ellipse cx="525" cy="222" rx="3" ry="2.5" fill="#5a7a1a"/>
  
  <!-- Syrup glaze overlay -->
  <rect x="30" y="50" width="540" height="300" fill="url(#bc-syrup)" opacity="0.1"/>
  
  <!-- Syrup pooling between pieces -->
  <path d="M160 130 Q190 135 220 130" fill="none" stroke="#60b5f0" stroke-width="2" opacity="0.3"/>
  <path d="M280 130 Q310 135 340 130" fill="none" stroke="#60b5f0" stroke-width="2" opacity="0.3"/>
  <path d="M220 160 Q250 165 280 160" fill="none" stroke="#60b5f0" stroke-width="1.5" opacity="0.25"/>
  <path d="M340 160 Q370 165 400 160" fill="none" stroke="#60b5f0" stroke-width="1.5" opacity="0.25"/>
  
  <!-- Light reflection -->
  <ellipse cx="300" cy="150" rx="200" ry="100" fill="#4da8e8" opacity="0.03"/>
</svg>