<svg xmlns="http://www.w3.org/2000/svg" viewBox="0 0 400 300" fill="none">
  <rect width="400" height="300" fill="#0a1628"/>
  <ellipse cx="200" cy="190" rx="130" ry="65" fill="#0f1e36" stroke="#4da8e8" stroke-width="1"/>
  <!-- Znoud rolls arranged -->
  <rect x="130" y="160" width="80" height="22" rx="11" fill="#60b5f0" transform="rotate(-5 170 171)"/>
  <rect x="150" y="175" width="75" height="20" rx="10" fill="#4da8e8" transform="rotate(3 188 185)"/>
  <rect x="185" y="155" width="82" height="22" rx="11" fill="#60b5f0" transform="rotate(-8 226 166)"/>
  <rect x="175" y="185" width="78" height="20" rx="10" fill="#4da8e8" transform="rotate(5 214 195)"/>
  <rect x="210" y="170" width="70" height="20" rx="10" fill="#60b5f0" transform="rotate(-3 245 180)"/>
  <!-- Cream filling visible at ends -->
  <circle cx="130" cy="170" r="6" fill="#f5f0e0" opacity="0.8"/>
  <circle cx="150" cy="184" r="5" fill="#f5f0e0" opacity="0.7"/>
  <circle cx="185" cy="164" r="6" fill="#f5f0e0" opacity="0.8"/>
  <circle cx="175" cy="194" r="5" fill="#f5f0e0" opacity="0.7"/>
  <!-- Syrup glaze -->
  <path d="M140 158 Q180 150 220 155 Q260 150 280 158" stroke="#4da8e8" stroke-width="1.5" opacity="0.5" fill="none"/>
  <!-- Pistachio crumble -->
  <circle cx="200" cy="170" r="2" fill="#6b8f3c"/>
  <circle cx="220" cy="165" r="1.5" fill="#5a7a2a"/>
  <circle cx="240" cy="175" r="2" fill="#6b8f3c"/>
</svg>
